<svg width="736" height="534" viewBox="0 0 736 534" fill="none" xmlns="http://www.w3.org/2000/svg">
<mask id="mask0_24_2511" style="mask-type:alpha" maskUnits="userSpaceOnUse" x="0" y="0" width="736" height="534">
<rect y="0.25" width="736" height="533.19" fill="url(#paint0_radial_24_2511)"/>
</mask>
<g mask="url(#mask0_24_2511)">
<path d="M101.472 298.33C84.4806 300.101 67.2999 301.563 50.5334 302.696L50.2464 302.736C49.6314 302.821 49.0523 302.714 48.4272 302.424C47.691 302.087 47.0631 301.777 46.5023 301.5C47.6592 236.445 42.2257 171.074 50.2118 105.093C51.1902 97.8328 53.5663 93.7217 57.2631 92.9586C74.3743 89.1867 91.6562 85.8926 108.678 83.136C109.683 82.9968 110.244 83.2742 110.725 83.7299C110.967 83.9679 111.567 84.5324 111.44 86.326C109.214 112.02 108.732 119.777 106.862 145.777L106.56 150.081C106.544 150.418 106.836 150.712 107.181 150.643L111.44 150.011C120.158 148.698 129.008 147.429 137.782 146.213C146.556 144.997 155.438 143.807 164.246 142.691L167.075 142.298C167.327 142.305 167.527 142.09 167.554 141.835L167.745 138.988C169.388 113.312 166.282 84.4226 167.745 58.5C167.853 57.0224 168.409 55.7545 169.497 54.559C170.549 53.4102 171.652 52.7768 172.903 52.6034C189.766 50.6627 207.029 49.189 224.088 48.2033C225.311 48.1381 225.719 48.5203 225.886 48.6644C226.44 49.1935 227.749 51.1014 227.703 57.2505C226.472 122.525 226.201 192.019 217.669 258.431C217.478 258.562 217.27 258.716 217.082 258.867L215.217 260.338C214.841 260.641 214.319 260.943 213.691 261.239C213.023 261.54 212.56 261.667 212.314 261.701L212.047 261.738C194.747 265.348 177.342 268.66 160.348 271.621C159.282 271.769 158.742 271.489 158.281 271.03C158.039 270.792 157.439 270.228 157.566 268.434C159.683 244.364 161.746 219.758 163.688 195.336L164.034 191.047C164.07 190.707 163.758 190.416 163.43 190.462L103.51 198.768C103.264 198.802 103.065 199.018 103.058 199.269L102.859 202.055C101.101 226.451 108.006 268.445 106.657 292.472C106.545 293.929 105.975 295.241 104.902 296.392C103.849 297.541 102.726 298.177 101.496 298.348L101.472 298.33Z" fill="#FAE5C7"/>
<path d="M265.459 301.136C252.624 303.5 239.698 305.208 226.982 306.177C226.072 306.24 224.661 306.164 223.112 305.084C221.839 304.194 221.334 303.262 221.497 302.027L225.102 286.881C225.093 286.068 228.085 277.358 230.968 274.033C235.367 268.994 247.332 273.917 248.18 268.43C248.683 265.122 263.059 131.291 264.096 121.745C264.139 121.447 263.856 121.215 263.481 121.225C260.103 121.275 245.273 121.304 245.706 118.549C246.869 111.263 248.034 103.998 249.241 96.7268C249.465 95.0243 250.555 93.3898 252.531 91.6741C254.602 89.8827 256.732 88.6682 259.018 87.9752C272.014 84.2097 285.18 81.0683 298.036 78.7012C310.891 76.3341 323.715 74.64 336.266 73.6941C337.78 73.6096 339.075 73.9106 340.295 74.7235C341.489 75.4982 341.956 76.4572 341.751 77.8437C340.734 87.5331 339.675 97.2281 338.578 106.949C338.201 110.261 315.55 111.144 315.155 114.479C314.761 117.814 313.857 127.572 313.472 130.822C313.026 134.54 301.64 251.805 300.698 261.588C300.661 261.928 301.009 262.172 301.419 262.115C304.637 261.669 316.76 260.198 317.934 262.939C320.543 268.95 316.129 274.785 314.025 283.121C313.817 284.633 312.707 286.27 310.68 288.077C308.614 289.909 306.473 291.188 304.248 291.872C291.396 295.618 278.309 298.727 265.456 301.115L265.459 301.136Z" fill="#FAE5C7"/>
<path d="M390.274 238.87C383.612 246.125 375.841 250.357 366.985 251.584C358.13 252.812 350.813 250.671 345.073 245.136C339.333 239.601 336.779 232.329 337.431 223.317C338.08 214.285 341.732 206.111 348.4 198.751C355.072 191.412 362.834 187.119 371.71 185.888C380.586 184.658 387.871 186.866 393.601 192.486C399.335 198.126 401.895 205.439 401.246 214.471C400.597 223.504 396.939 231.637 390.274 238.87ZM395.003 163.709C394.797 166.746 393.58 169.422 391.352 171.737C389.144 174.049 386.657 175.396 383.889 175.78L360.462 178.15C357.695 178.534 355.365 177.854 353.432 176.116C351.498 174.378 350.665 171.986 350.871 168.949L357.539 58.794C357.745 55.7568 358.962 53.0809 361.19 50.7663C363.089 48.7898 365.169 47.5194 367.452 46.9523C368.966 46.5752 370.429 45.9754 371.869 45.358L404.942 31.3295C404.942 31.3295 405.062 31.2919 405.103 31.2863C407.812 30.9317 410.142 31.6116 412.031 33.3345C413.964 35.0723 414.797 37.464 414.591 40.5012L394.982 163.712L395.003 163.709Z" fill="#FAE5C7"/>
<path d="M28.7242 442.575C20.2183 443.637 11.6883 444.394 3.36181 444.822C2.76364 444.846 1.85442 444.822 0.909309 444.309C0.131687 443.894 -0.131516 443.467 0.0598989 442.905L3.38573 435.935C3.43358 435.568 5.93393 431.552 8.03949 430.026C11.2218 427.719 18.6989 430.002 19.5961 427.487C20.1465 425.961 38.1753 364.338 39.4674 359.944C39.5033 359.809 39.3477 359.699 39.0965 359.699C36.8952 359.712 27.2408 359.699 27.7073 358.43C28.9276 355.085 30.1718 351.728 31.416 348.383C31.6792 347.602 32.4807 346.857 33.8805 346.064C35.352 345.246 36.7995 344.684 38.3428 344.367C47.0522 342.658 55.8214 341.242 64.3393 340.168C72.8573 339.093 81.3274 338.349 89.5462 337.946C90.5392 337.909 91.3527 338.056 92.1064 338.434C92.8361 338.8 93.0754 339.24 92.8601 339.875C91.568 344.33 90.2521 348.798 88.9002 353.278C88.4336 354.804 73.6349 355.17 73.1683 356.696C72.7017 358.222 71.4695 362.727 71.0029 364.228C70.4765 365.937 55.4625 419.943 54.2063 424.447C54.1584 424.606 54.3618 424.716 54.637 424.692C56.7665 424.496 64.746 423.837 65.3323 425.107C66.6363 427.878 63.3942 430.563 61.48 434.396C61.2527 435.092 60.4153 435.849 58.9797 436.679C57.5202 437.522 56.0367 438.107 54.5532 438.413C45.9515 440.11 37.2302 441.513 28.7123 442.588L28.7242 442.575Z" fill="#FAE5C7"/>
<path d="M126.692 335.285C128.906 338.141 129.576 341.62 128.726 345.71C126.98 354.096 121.07 357.588 113.76 359.492C110.829 360.261 105.433 362.69 101.294 365.815C99.3799 367.256 96.712 365.73 96.9513 363.325C97.9562 353.022 99.0329 341.376 106.259 335.297C109.656 332.428 113.365 331 117.373 331C121.381 331 124.491 332.428 126.692 335.297V335.285Z" fill="#FAE5C7"/>
<path d="M134.624 416.439C134.792 415.622 134.923 414.694 135.007 413.644C135.091 412.606 134.971 411.593 134.624 410.641C134.289 409.689 133.679 408.895 132.782 408.261C131.884 407.626 130.58 407.308 128.846 407.308C127.111 407.308 125.651 407.675 124.479 408.395C123.307 409.127 122.326 409.957 121.548 410.922C120.77 411.886 120.208 412.85 119.873 413.851C119.526 414.852 119.287 415.719 119.131 416.439C116.428 429.001 114.143 441.574 112.288 454.136C112.205 454.71 111.714 455.125 111.14 455.125C101.856 454.954 92.6324 454.697 83.4565 454.368C82.8105 454.343 82.3081 453.77 82.3679 453.11C84.3777 431.564 93.1469 402.108 100.229 380.586C100.373 380.135 100.792 379.83 101.258 379.805C110.578 379.475 119.873 379.219 129.169 379.048C129.982 379.036 130.545 379.866 130.245 380.635C129.157 383.345 126.967 388.143 125.556 391.536C125.125 392.574 126.25 393.563 127.195 392.965C127.613 392.708 128.032 392.44 128.475 392.183C129.994 391.28 131.789 390.389 133.834 389.522C135.88 388.655 138.165 387.935 140.701 387.337C143.226 386.751 146.001 386.458 149.028 386.458C152.055 386.458 154.483 386.776 156.577 387.41C158.671 388.045 160.465 388.839 161.96 389.791C163.456 390.743 164.652 391.793 165.585 392.928C166.16 393.636 166.65 394.295 167.069 394.906C167.464 395.479 168.205 395.589 168.732 395.125C171.364 392.782 172.153 390.718 175.73 389.18C175.73 389.18 177.513 387.545 185.038 386.129C191.749 384.871 197.157 388.399 200.961 392.403C204.921 396.493 206.321 401.937 205.172 408.761C202.732 423.41 199.083 438.095 194.214 452.83C194.058 453.294 193.64 453.599 193.173 453.623C183.901 453.965 182.621 454.917 173.397 455.112C172.644 455.125 172.081 454.392 172.273 453.648C175.599 441.245 178.506 428.842 181.006 416.427C181.174 415.609 181.305 414.682 181.389 413.632C181.473 412.594 181.365 411.618 181.066 410.702C180.767 409.799 180.169 408.993 179.295 408.322C178.41 407.638 177.13 407.296 175.431 407.296C173.732 407.296 172.309 407.638 171.148 408.322C169.988 409.005 169.031 409.847 168.289 410.836C167.547 411.837 166.985 412.838 166.59 413.839C166.207 414.84 165.932 415.707 165.789 416.427C163.145 429.123 160.321 441.819 157.343 454.514C157.223 455.039 156.768 455.405 156.242 455.405C146.91 455.479 137.651 455.479 128.427 455.405C127.721 455.405 127.195 454.746 127.314 454.038C129.516 441.501 131.968 428.952 134.66 416.415L134.624 416.439Z" fill="#FAE5C7"/>
<path d="M254.402 475.352C244.245 469.81 236.277 460.056 234.494 448.142C233.25 439.829 235.547 430.685 240.081 423.739C244.221 417.404 254.294 409.432 262.238 413.815C263.29 414.401 264.128 415.573 263.948 416.793C263.853 417.453 263.482 418.026 263.123 418.576C258.074 426.279 250.525 446.604 264.786 450.156C277.766 453.391 284.059 431.601 286.954 422.653C290.196 412.631 291.883 402.267 290.878 391.695C290.782 390.731 290.627 389.693 289.933 389.046C289.012 388.216 287.612 388.448 286.416 388.741C284.358 389.229 274.548 393.026 272.825 390.67C272.55 390.291 272.574 389.778 272.598 389.315C272.981 382.601 273.124 375.838 273.663 369.148C274.321 360.932 285.471 359.162 291.62 358.027C297.817 356.88 304.05 355.903 310.283 354.963C313.166 354.536 325.105 350.874 326.996 353.718C327.654 354.707 327.666 355.988 327.642 357.185C327.331 381.941 329.053 407.357 322.701 431.528C316.348 455.698 299.504 480.833 272.67 480.308C266.365 480.186 260.048 478.404 254.402 475.328V475.352Z" fill="#FAE5C7"/>
<path d="M341.005 401.339C343.553 397.25 346.867 393.477 350.97 390.023C355.074 386.568 359.74 383.797 364.992 381.71C370.255 379.524 375.998 378.438 382.231 378.438C388.464 378.438 393.752 379.524 398.106 381.71C402.473 383.797 406.002 386.568 408.658 390.023C411.326 393.477 413.073 397.25 413.91 401.339C414.819 405.514 414.831 409.738 413.946 414.01C413.061 418.283 411.278 422.507 408.634 426.682C406.086 430.771 402.772 434.543 398.669 437.986C394.565 441.44 389.899 444.211 384.647 446.299C379.384 448.484 373.641 449.57 367.408 449.57C361.175 449.57 355.887 448.484 351.533 446.299C347.166 444.211 343.637 441.44 340.981 437.986C338.313 434.531 336.567 430.759 335.729 426.682C334.82 422.507 334.808 418.283 335.693 414.01C336.578 409.738 338.349 405.514 341.005 401.339ZM364.812 414.01C364.477 415.646 364.346 417.233 364.417 418.783C364.489 420.334 364.86 421.689 365.506 422.873C366.152 424.057 367.013 425.034 368.102 425.803C369.191 426.572 370.555 426.962 372.205 426.962C373.856 426.962 375.376 426.572 376.787 425.803C378.199 425.034 379.467 424.057 380.604 422.873C381.74 421.689 382.674 420.334 383.391 418.783C384.109 417.245 384.647 415.646 384.982 414.01C385.317 412.374 385.449 410.788 385.377 409.237C385.293 407.699 384.935 406.307 384.313 405.074C383.678 403.842 382.817 402.877 381.716 402.145C380.616 401.424 379.252 401.058 377.601 401.058C375.95 401.058 374.431 401.424 373.031 402.145C371.631 402.877 370.363 403.854 369.215 405.074C368.066 406.307 367.133 407.687 366.415 409.237C365.697 410.788 365.159 412.374 364.824 414.01H364.812Z" fill="#FAE5C7"/>
<path d="M477.903 419.528C475.773 432.285 466.131 441.562 455.782 448.081C450.411 451.462 444.692 454.258 438.878 456.76C433.064 459.263 426.544 462.718 420.071 462.767C413.252 462.815 408.144 450.12 411.936 444.809C414.676 440.964 423.72 439.438 428.063 437.534C433.052 435.337 449.585 430.441 448.724 423.056C448.233 418.857 439.955 418.429 436.988 417.917C430.994 416.879 425.455 415.048 422.261 409.298C414.544 395.394 424.725 383.235 436.581 376.741C442.754 373.347 449.609 370.955 456.548 369.881C467.387 368.184 480.2 365.681 483.37 379.329C484.638 384.774 481.851 387.935 476.73 388.826C469.959 390.01 462.613 388.411 456.022 390.645C453.21 391.597 444.608 395.858 448.736 399.764C450.471 401.4 455.148 400.729 457.338 400.79C463.774 400.973 471.155 401.18 475.438 406.893C478.07 410.397 478.62 415.292 477.915 419.54L477.903 419.528Z" fill="#FAE5C7"/>
<path d="M546.584 427.45C545.783 428.427 544.634 429.098 543.007 429.282C531.642 430.563 520.085 430.319 508.684 431.088C504.449 431.369 505.466 437.631 506.483 440.683C507.715 444.382 510.957 446.409 514.331 445.908C516.472 445.591 518.387 444.419 520.408 443.625C522.55 442.783 524.751 442.6 527 442.527C530.589 442.417 534.19 442.38 537.767 442.185C539.37 442.087 542.696 441.44 542.612 444.358C542.457 450.059 536.559 455.259 532.707 457.713C528.173 460.594 522.945 462.351 517.776 462.705C513.757 462.986 509.498 462.473 505.658 461.595C501.375 460.618 497.032 458.884 493.574 456.37C490.117 453.855 487.724 451.157 485.655 447.519C483.597 443.882 482.472 440.378 482.018 436.179C481.563 431.967 481.767 428.268 482.867 424.093C487.999 404.501 508.529 388.79 526.246 391.475C530.003 392.049 533.64 393.49 536.882 395.76C538.82 397.115 540.579 398.8 542.074 400.765C545.161 404.842 547.075 409.957 547.793 415.28C548.331 419.308 548.869 424.679 546.584 427.487V427.45ZM523.638 416.134C524.512 416.098 525.182 415.231 525.122 414.23C525.11 413.925 525.074 413.632 525.014 413.327C524.823 412.387 524.608 411.556 524.093 410.726C523.591 409.896 523.052 409.323 522.167 408.81C521.282 408.297 520.145 408.09 519.033 408.138C517.932 408.187 516.616 408.529 515.623 409.103C514.63 409.677 513.781 410.385 513.051 411.215C512.321 412.045 511.771 412.948 511.328 413.876C511.328 413.876 511.328 413.9 511.316 413.9C510.754 415.072 511.531 416.525 512.704 416.5C516.353 416.427 519.99 416.293 523.638 416.134Z" fill="#FAE5C7"/>
<path d="M552.841 415.524C552.817 415.316 552.805 415.109 552.817 414.901C553.009 411.239 553.475 407.382 554.468 403.805C555.772 399.154 556.813 397.848 561.515 397.677C566.635 397.481 566.193 389.266 567.221 385.689C572.533 367.317 588.923 354.621 607.371 352.363C610.003 352.045 613.46 351.997 613.639 355.439C613.927 360.786 614.202 366.145 614.489 371.492C614.656 374.763 610.134 375.862 607.825 376.619C603.662 377.986 600.755 380.086 598.41 383.882C596.831 386.434 592.68 393.941 596.436 396.358C596.831 396.615 597.309 396.676 597.764 396.724C599.774 396.956 607.933 396.456 607.251 399.874C606.15 405.38 604.966 410.873 603.806 416.366C603.698 416.842 603.59 417.355 603.267 417.721C602.705 418.368 601.724 418.356 600.874 418.307C597.812 418.136 591.938 416.964 590.239 419.674C588.169 423.007 588.373 429.807 587.583 433.652C585.765 442.6 583.42 451.401 581.051 460.203C578.646 469.163 553.93 460.13 551.382 454.783C549.276 450.364 553.607 444.736 554.791 440.647C555.737 437.375 562.604 417.611 557.28 417.611C556.119 417.611 554.851 417.965 553.87 417.318C553.272 416.928 552.937 416.22 552.841 415.487V415.524Z" fill="#FAE5C7"/>
<path d="M631.68 449.338C618.066 459.226 622.564 451.121 608.961 454.502C608.782 454.551 608.722 454.417 608.722 454.27C609.5 433.859 614.835 415.768 619.286 396.297C619.764 394.185 621.547 392.647 623.664 392.513C632.888 391.939 633.139 396.566 642.351 397.03C642.507 397.03 642.603 397.188 642.579 397.311M645.055 377.742C640.509 381.6 632.111 382.881 627.888 377.779C620.111 368.403 634.216 354.035 644.158 357.002C653.417 359.773 650.905 372.774 645.067 377.742H645.055Z" fill="#FAE5C7"/>
<path d="M649.003 450.62C647.352 448.935 655.188 394.185 662.785 365.278C662.821 365.144 662.905 365.107 663 365.095C670.13 364.888 677.249 364.778 684.379 364.668C688.913 364.595 692.299 368.806 691.437 373.347C691.437 373.372 691.437 373.408 691.425 373.433C691.377 373.677 691.617 373.836 691.808 373.652C694.955 370.784 697.598 368.477 701.582 366.45C705.889 364.265 711.392 363.24 716.297 363.203C719.671 363.179 723.236 363.74 726.047 365.058C728.847 366.377 730.617 367.769 732.328 370.125C734.039 372.481 734.841 374.531 735.271 377.62C735.702 380.696 735.582 383.748 734.948 387.203C732.615 400.057 729.565 413.143 726.119 425.925C725.377 428.696 722.482 431.1 719.671 431.247C714.216 431.54 708.748 431.735 703.293 431.857C698.687 431.967 695.218 427.597 696.247 423.019C698.639 412.399 700.936 401.791 703.006 391.048C703.161 390.23 703.293 389.168 703.293 388.216C703.293 387.264 703.245 386.238 702.803 385.274C702.36 384.31 701.881 383.638 700.876 382.955C699.872 382.283 698.448 381.99 697.12 382.063C695.792 382.137 694.404 382.503 693.256 383.235C692.107 383.98 691.043 384.969 690.193 385.945C689.344 386.922 688.626 388.143 688.147 389.18C687.669 390.218 687.238 391.402 687.035 392.281C683.051 408.907 680.634 425.131 679.701 442.136C679.701 442.282 679.606 442.38 679.486 442.417" fill="#FAE5C7"/>
</g>
<defs>
<radialGradient id="paint0_radial_24_2511" cx="0" cy="0" r="1" gradientUnits="userSpaceOnUse" gradientTransform="translate(368 266.845) scale(520.431 377.022)">
<stop stop-color="white"/>
<stop offset="1"/>
</radialGradient>
</defs>
</svg>
